<svg xmlns="http://www.w3.org/2000/svg" viewBox="333 532 902 522"><path d="M533.8 582c-23.2 1.1-48.9 3.9-57.8 6.1-18 4.6-29 12.5-43.8 31.5l-3.2 4.2-19.4.7c-28.5 1.1-28.6 1.1-28.6 22.8 0 21.4.4 21.7 23.9 21.7 21.2 0 19.9-1.4 25.6 28.8 12.4 65.8 20.4 87.7 40.2 110.1 13 14.8 36.4 27.2 59.5 31.6 20.5 3.9 85.9 4.4 115.3 1 38.1-4.5 61.7-17.5 79.5-43.9 12.2-18.3 18.4-36.6 26.5-79.3 7.8-40.9 8.3-42.8 12.9-45.8 5.9-3.9 33-3.7 38.6.3 1.4 1 3.3 3.4 4.2 5.3 1.6 3.1 6 23.4 8.8 39.9 2 12.3 7.2 34.5 10.2 44 10.6 33.4 27.4 55.3 51.8 67.5 22.4 11.2 40.7 13.8 97.5 13.9 41 .1 56.8-1 71.5-5 18.2-4.8 35.7-14.8 48.1-27.3 9.3-9.4 14.7-17.3 21-30.5 6.9-14.7 11.2-30 18.4-66.3 7.6-38.3 7.9-39.4 10.5-41.8 2.4-2.2 1.6-2.1 20.7-2.3 14.2-.2 14.3-.2 17.5-3.1l3.3-2.9.3-13.9c.6-22.9-.2-23.7-25.8-24.7-23.7-.9-22.7-.7-28-7.8-14.3-19.2-32-28.7-59-31.8-31-3.4-108.4-5.1-150.2-3.1-63.5 3-78.2 7.5-100 31l-7.4 8-32.4.1-32.4.1-5.5-6.4c-11.4-13.2-23.2-21.2-37.3-25.6-8.3-2.5-24.2-4.7-45.3-6.2-20-1.4-107.4-2-129.7-.9m126.5 43.9c19.8 1.2 32.2 3.9 39.8 8.4 5.9 3.6 11.2 10.6 13 17 2.8 10.1 0 34.2-8.6 74.2-6.1 28.4-10.8 39.4-21.7 51.1-10.5 11.2-23.8 18-40.6 20.9-13 2.2-45.9 3.4-68.7 2.4-23.2-1.1-31-2-42-5.4-21-6.4-36-22-43.9-45.8-6.1-18.6-14.4-62.7-15.3-82.2-.7-14.4.8-20.9 6.1-27.1 6.8-8 16-10.9 42.1-13.4 6.1-.5 12.6-1.2 14.5-1.4 6.7-.8 108.6.3 125.3 1.3m387.1.1c30.1 2.4 38.7 6 45.9 19.4 2 3.7 2.2 5.5 2.1 18.6 0 11.8-.6 17.8-3.2 32.2-9.5 52.7-14.8 67.4-29.2 81.8-13.3 13.4-28.1 19.2-53.2 21.1-19.1 1.4-58.8 1.4-73.3-.1-22.7-2.2-37.5-8.3-49.4-20.1-7.8-7.8-12.3-14.9-16.7-26.7-7.6-20.2-18.7-82.8-16.9-95.2.9-6.2 4.5-13.9 8.5-17.8 8-8.1 18.4-10.8 55.5-14.6 8.3-.8 116.6.3 129.9 1.4M680.5 857.7c-13.6 1.2-32.4 6.8-48.5 14.4-28.4 13.5-51.4 34.8-63.6 59.1-10.5 20.8-11 36.1-1.9 49.4 4.6 6.6 11.1 10.9 20 13.1 9.5 2.3 17.7.9 31-5.5l10-4.9 5.5 4.4c6.4 5 14.3 9.3 22 11.9 4.4 1.5 8.5 1.9 20.5 1.9 13.8 0 15.7-.2 23-2.7 4.4-1.6 11.4-5 15.5-7.6l7.5-4.8 4.5 2.9c8.2 5.3 22.5 11.6 31.6 13.9 7.6 1.9 11.4 2.3 25.9 2.2 15.4-.1 17.8-.3 25.8-2.7 9.9-3 20.4-8.1 28.9-13.9l5.8-3.8 5.8 4c7.6 5.2 17.1 9.5 25.2 11.6 8.8 2.2 29 1.5 37-1.4 7.7-2.7 14.4-6.3 21.7-11.5l6.3-4.4 9.4 4.7c15.9 8 26.2 8.7 38.3 2.9 13.4-6.5 20.5-20.4 18.3-36-3.6-25.5-23.6-53.2-52-72.1-15.3-10.1-38.1-19.6-56.3-23.5-11.4-2.4-34.8-2.4-43.7 0-10.5 2.8-19.9 7.9-30 16.1-18.4 14.9-33.2 19.2-52.5 15.1-9.1-1.9-18-6.5-26.3-13.5-9.6-8-14.9-11.5-22.3-14.4-11.2-4.6-26.4-6.4-42.4-4.9"/></svg>
