<?xml version="1.0" encoding="UTF-8" standalone="no"?>
<!DOCTYPE svg PUBLIC "-//W3C//DTD SVG 1.1//EN" "http://www.w3.org/Graphics/SVG/1.1/DTD/svg11.dtd">
<svg width="100%" height="100%" viewBox="0 0 156 150" version="1.1" xmlns="http://www.w3.org/2000/svg" xmlns:xlink="http://www.w3.org/1999/xlink" xml:space="preserve" xmlns:serif="http://www.serif.com/" style="fill-rule:evenodd;clip-rule:evenodd;stroke-linejoin:round;stroke-miterlimit:2;">
    <g id="Prancheta1" transform="matrix(0.973679,0,0,1.030498,4.014039,-0.427471)">
        <rect x="-4.123" y="0.415" width="159.6" height="145.561" style="fill:none;"/>
        <g transform="matrix(2.021756,0,0,1.910281,4.647893,6.484879)">
            <path d="M-0.216,69.254C-0.216,69.815 0.239,70.27 0.8,70.27L69.465,70.27C70.026,70.27 70.481,69.815 70.481,69.254L70.481,0.589C70.481,0.028 70.026,-0.427 69.465,-0.427L0.8,-0.427C0.239,-0.427 -0.216,0.028 -0.216,0.589L-0.216,69.254ZM35.667,10.102C35.353,9.92 34.966,9.92 34.651,10.102C31.709,11.8 16.884,20.36 13.942,22.058C13.628,22.24 13.434,22.575 13.434,22.938C13.434,26.335 13.434,43.454 13.434,46.851C13.434,47.214 13.628,47.55 13.942,47.731C16.884,49.43 31.709,57.989 34.651,59.688C34.966,59.869 35.353,59.869 35.667,59.688C38.609,57.989 53.434,49.43 56.377,47.731C56.691,47.55 56.884,47.214 56.885,46.851C56.884,44.397 56.884,35.079 56.884,35.079L35.159,47.622L24.137,41.258L24.137,28.531L35.159,34.895L56.884,22.352C56.884,22.352 38.937,11.99 35.667,10.102Z"/>
        </g>
    </g>
</svg>
