<?xml version="1.0" encoding="UTF-8" standalone="no"?>
<!DOCTYPE svg PUBLIC "-//W3C//DTD SVG 1.1//EN" "http://www.w3.org/Graphics/SVG/1.1/DTD/svg11.dtd">
<svg width="100%" height="100%" viewBox="0 0 95 100" version="1.1" xmlns="http://www.w3.org/2000/svg" xmlns:xlink="http://www.w3.org/1999/xlink" xml:space="preserve" xmlns:serif="http://www.serif.com/" style="fill-rule:evenodd;clip-rule:evenodd;stroke-linejoin:round;stroke-miterlimit:2;">
    <g transform="matrix(1,0,0,1,-64.787036,-50)">
        <g transform="matrix(0.11964,0,0,0.11964,18.362398,6.332801)">
            <path d="M770,366.6C757.3,370 748.4,377.3 743.1,388.4L740.1,394.9L672.3,395.3C606.9,395.6 604.2,395.7 594.8,397.8C546.7,408.7 509.4,441.9 494.6,487.3C488.2,506.5 488,510.4 488,591.3C488,640.6 487.6,665.6 486.9,669.2C483.5,685.5 469,700.1 451.1,705.4C439.3,708.9 420.5,706.7 410.4,700.8C405.3,697.8 397.1,698.6 393,702.5C388.3,707 387.4,711.5 388.8,722.6C391.7,745.6 405.6,766.3 425.1,776.5C428.9,778.5 432,780.4 432,780.8C432,781.2 430,782.5 427.6,783.8C421.5,787.1 409.8,798 404.6,805.4C396.4,817 391.1,830 389.1,843.7C387.7,853 387.7,930.3 389,939C393.9,969.9 415.6,994.8 445.3,1003.7C450.9,1005.4 457.1,1006.3 464.7,1006.7L475.8,1007.3L476.2,1052.9L476.7,1098.5L479.4,1108.8C491.7,1155.1 524.2,1187.1 570.9,1198.7C576.9,1200.3 595.3,1200.4 777.5,1200.7C920.9,1201 980.3,1200.8 987.4,1200C1023.2,1195.9 1056.3,1174 1075.4,1141.7C1080.9,1132.3 1086.5,1118.5 1089.2,1107.3C1091.2,1099.2 1091.3,1095.1 1091.7,1052.9L1092.1,1007.3L1103.3,1006.7C1133.4,1005.3 1158.7,988.9 1171.5,962.5C1179.3,946.2 1179.3,946.3 1179.7,895.3C1180.1,857.1 1179.9,848.7 1178.5,840.8C1176.8,831.1 1172.5,819.8 1166.8,810.3C1161.9,802.1 1151.2,791.1 1143.2,786C1139.3,783.5 1136.1,781.2 1136.1,780.8C1136,780.4 1136.9,779.9 1138,779.5C1142.7,778 1155.1,768.8 1161.2,762.2C1171.8,750.7 1178.1,736.1 1179.6,719.6C1180.4,711 1179.2,706.5 1175.1,702.6C1170.7,698.3 1164.6,698 1156.8,701.5C1147.6,705.7 1141.5,707 1131.4,707C1110.6,707 1093.3,696.6 1084.4,678.6L1080.5,670.6L1080,589.1L1079.4,507.5L1076.3,496C1067.3,462.3 1048.7,435.9 1021,417.4C1006.4,407.7 992.9,402.1 973.8,397.8C964.9,395.8 961.2,395.6 896.3,395.3L828.1,394.9L825.2,388.7C821.5,380.7 817.9,376.5 810.7,371.9C800.7,365.5 782.9,363.1 770,366.6M812.8,462C848.4,464.6 891.1,472.3 903.6,478.5C912.3,482.8 919.9,490.7 923.2,499C925.4,504.3 925.5,506 925.8,540.5C926,560.3 925.8,578 925.5,579.8C924.7,584.4 919.6,589.8 915,591C911.7,591.9 908.5,591.4 893.8,588.1C850.9,578.4 826.6,575.6 785,575.5C744.2,575.5 716.2,578.5 678.5,587.1C671.4,588.7 663.4,590.5 660.8,591.1C656.8,592 655.4,591.8 651.6,590.1C648.8,588.9 646.2,586.8 645,584.8C643,581.6 643,580.3 643.2,541.5C643.5,501.9 643.5,501.5 645.8,496.8C652.1,484.1 663,476.9 683,472.6C727.8,462.8 772.4,459.2 812.8,462M835.9,629.5C907.5,635.7 976.6,654.2 1032.1,682C1039.6,685.8 1046.1,689.4 1046.4,689.9C1047.4,691.5 1038.4,701.5 1030,708.3C1015.3,720 1005.1,723.5 987.5,722.8C978,722.4 975.1,721.8 966,718.6C906.7,697.2 862.7,688 805.7,684.9C744.9,681.5 675.3,692.5 612.3,715.4C594.8,721.7 588.9,723 577.2,723C561.5,723 549.1,718 535.9,706.3C526.1,697.6 521.8,692.5 522.2,690.3C522.4,689.1 527.3,686.1 536,681.8C598.3,650.8 678.5,631.4 760.5,627.6C775.5,626.9 818.4,628 835.9,629.5M838.5,727.4C873.5,732 904.8,739.6 938.5,751.5C965.6,761.1 971,762.3 989.5,762.4C1006.3,762.5 1014,761.3 1025,757C1027.8,755.9 1030.6,755 1031.3,755C1033.6,755 1043.1,782.2 1047.4,801C1050.4,814.3 1052.2,829.3 1052.3,842.7L1052.5,856.5L1024.2,856.5L1016.8,848.8C1001.1,832.5 985.7,829.5 916,829.5C862.9,829.5 840.2,831.7 827,838.2C820.8,841.2 811.1,849.7 807.9,854.9L806.4,857.3L784.6,857.4L762.9,857.5L757.3,851.1C746.9,839.4 735.9,834.1 717.5,832.1C694.3,829.5 673.3,828.7 641,829.3C577.7,830.5 566.4,832.9 551.2,848.8L543.9,856.5L515.5,856.5L515.6,844C515.8,821.1 521.1,794.6 530.5,768.5C533.1,761.3 535.4,755.3 535.6,755.1C535.8,754.8 539.5,755.9 543.8,757.4C559.9,763 577.1,764.3 595,761.5C600.7,760.6 613.4,757 626.5,752.6C671.3,737.5 700.3,730.7 737,726.6C757.8,724.2 757.6,724.2 789.5,724.5C814.7,724.8 822.6,725.3 838.5,727.4M472.9,836.6L476,837.2L476,967L469.2,967C452.6,967 438,957.9 431.2,943.2L428.5,937.5L428.5,866.5L431.1,860.9C437.1,848.1 449,839.3 463.5,837C466.3,836.6 468.8,836.2 469.1,836.1C469.5,836.1 471.2,836.3 472.9,836.6M1105.6,837.1C1118.8,839.5 1130.5,848.2 1136.2,859.8L1139.5,866.5L1139.5,937.5L1136.3,944.1C1132.2,952.4 1125.2,959.1 1116.2,963.3C1110.7,965.8 1108,966.5 1100.8,966.8L1092,967.2L1092,837.9L1094.3,837C1097.3,835.8 1098.6,835.8 1105.6,837.1M710,861.3C722.2,862.9 726.8,864.8 731.4,870.2C738,877.9 738.1,885.1 731.9,918.2C728.7,935.2 725.1,947.9 721.8,953.8C715.5,964.7 705.8,972.5 694,976C681.5,979.7 656.7,980.9 631.9,979C611.2,977.4 601.8,973.9 592.5,964.6C583.2,955.4 578.8,942.9 573.6,912C568.8,882.5 569,876.3 575.6,869C580.2,863.9 585.3,862.4 601.5,861C608.7,860.5 616.5,859.8 619,859.6C629.5,858.7 700,860 710,861.3M970.5,861.3C983.9,862.9 986.2,863.6 990.9,867.5C998.8,874.2 999.6,881.3 995.4,907.8C992.3,927.6 988.2,944.6 984.5,952.3C978.1,965.9 963.8,975.8 947.6,978C933.5,979.8 908.3,980.3 893.5,979.1C872.9,977.3 863.8,973.7 853.9,963.3C848.1,957.2 845.5,952.9 842.5,944.1C837.4,928.9 830.4,886.7 831.9,880C834.9,867 841.9,862.8 864,861C872,860.4 879.6,859.7 881,859.5C887.5,858.6 959.5,860 970.5,861.3M537.8,891.3C539.5,893.1 540.4,896.9 542.5,910C549.4,954.3 555.4,970.4 571,986.1C578.3,993.5 580.9,995.4 589,999.3C606.5,1007.6 621,1009.5 660.7,1008.7C680.2,1008.3 689.4,1007.7 694.4,1006.6C698.2,1005.7 701.7,1005.3 702.1,1005.7C702.5,1006.2 703.1,1009.1 703.5,1012.2C704.2,1017.9 704.2,1017.9 701.4,1018.5C665.9,1026.4 641,1043.8 629.2,1068.8C624.7,1078.2 623.4,1086.5 625.4,1093.2C628.6,1104.2 637.3,1110.5 649.1,1110.4C654.7,1110.3 657.1,1109.7 663.7,1106.6L671.7,1102.8L677.9,1106.9C688.3,1113.6 694,1115.4 705.5,1115.4C717.6,1115.5 724,1113.8 733,1107.9L739.5,1103.7L743,1105.9C757.7,1115 769.2,1118.5 785,1118.4C800.4,1118.4 812.3,1114.8 825.1,1106.3L828.8,1103.8L835.5,1107.9C845.8,1114.1 850.9,1115.5 862.5,1115.4C874.2,1115.4 880.6,1113.4 890.7,1106.9L897.1,1102.7L903.3,1105.9C917,1112.8 928,1112 936.5,1103.5C942.6,1097.4 944.7,1090.4 943,1081.4C942.3,1077.9 940.5,1072.3 938.8,1068.8C927,1043.7 901.7,1026.1 866.7,1018.5C863.9,1017.9 863.9,1017.9 864.5,1012.2C864.9,1009.1 865.5,1006.2 865.9,1005.8C866.3,1005.4 870.2,1005.8 874.5,1006.7C881.2,1008.2 888,1008.5 916,1008.4C954.5,1008.4 961.9,1007.4 977.1,1000.3C1006.4,986.5 1017.8,965 1026,908.5C1027.1,900.9 1028.7,893.6 1029.5,892.3C1031.5,889.3 1033.8,888.8 1044,889.2L1052.5,889.5L1052.5,1093.5L1050.2,1101.5C1041.7,1131 1016.3,1154.6 987.6,1159.9C983.4,1160.7 922.4,1161 783.8,1161C566.2,1161 580.5,1161.4 565,1155C547.6,1147.8 532.3,1133.5 523.6,1116.3C522.2,1113.5 519.8,1107.2 518.3,1102.3L515.5,1093.5L515.2,992.6C515.1,937.1 515.2,891 515.4,890.3C515.8,889.4 518.6,889 525.8,889C534.7,889 535.8,889.2 537.8,891.3M795.3,890.4C800.9,892.7 801.8,894.6 804,908.9C809.8,946.5 815.5,964.5 826.5,979.8C843.3,1003.3 830.7,1032.6 800.3,1040.5C792.8,1042.5 775.2,1042.5 767.6,1040.5C753.4,1036.8 743.2,1028.9 737.7,1017.3C734.9,1011.3 734.5,1009.5 734.5,1002C734.5,992 736,987.5 742.7,978.2C753,963.7 759.6,942 765.1,904.7C766.4,895.5 768.3,891.6 772.4,890C775.8,888.6 791.7,888.9 795.3,890.4" style="fill:rgb(39,39,42);fill-rule:nonzero;"/>
        </g>
    </g>
</svg>
