<?xml version="1.0" encoding="UTF-8" standalone="no"?>
<!DOCTYPE svg PUBLIC "-//W3C//DTD SVG 1.1//EN" "http://www.w3.org/Graphics/SVG/1.1/DTD/svg11.dtd">
<svg width="100%" height="100%" viewBox="0 0 671 100" version="1.1" xmlns="http://www.w3.org/2000/svg" xmlns:xlink="http://www.w3.org/1999/xlink" xml:space="preserve" xmlns:serif="http://www.serif.com/" style="fill-rule:evenodd;clip-rule:evenodd;stroke-linejoin:round;stroke-miterlimit:2;">
    <g transform="matrix(1,0,0,1,-64.787036,-50)">
        <g transform="matrix(1.25705,0,0,1.25705,2.714684,-496.165451)">
            <path d="M148.823,505.082L148.823,499.698L171.758,499.698C173.358,499.698 174.498,499.45 175.177,498.955C175.858,498.46 176.198,497.623 176.198,496.442C176.198,495.232 175.858,494.38 175.177,493.885C174.498,493.39 173.358,493.142 171.758,493.142L157.027,493.142C154.327,493.142 152.287,492.663 150.907,491.703C149.527,490.743 148.837,489.323 148.837,487.442C148.837,485.792 149.38,484.492 150.465,483.542C151.55,482.592 153.128,482.032 155.198,481.863L155.198,480.138C152.957,479.197 151.287,477.742 150.187,475.773C149.087,473.802 148.537,471.397 148.537,468.557C148.537,463.987 149.964,460.482 152.819,458.042C155.675,455.602 159.652,454.382 164.752,454.382C169.852,454.382 173.822,455.602 176.662,458.042C179.503,460.482 180.923,463.987 180.923,468.557C180.923,472.957 179.513,476.348 176.693,478.728C173.872,481.108 169.952,482.298 164.933,482.298L159.112,482.298C157.782,482.298 156.827,482.493 156.247,482.882C155.667,483.272 155.377,483.922 155.377,484.832C155.377,485.722 155.667,486.367 156.247,486.767C156.827,487.167 157.782,487.367 159.112,487.367L173.212,487.367C176.482,487.367 178.977,488.1 180.697,489.566C182.417,491.031 183.277,493.163 183.277,495.963C183.277,498.943 182.322,501.207 180.412,502.757C178.503,504.307 175.743,505.082 172.133,505.082L148.823,505.082ZM164.752,477.063C167.792,477.063 170.077,476.42 171.607,475.135C173.137,473.85 173.902,471.843 173.902,469.113L173.902,467.882C173.902,465.153 173.137,463.145 171.607,461.86C170.077,460.575 167.792,459.932 164.752,459.932C161.692,459.932 159.394,460.575 157.859,461.86C156.325,463.145 155.558,465.153 155.558,467.882L155.558,469.113C155.558,471.843 156.325,473.85 157.859,475.135C159.394,476.42 161.692,477.063 164.752,477.063ZM171.127,456.992C171.127,454.532 171.655,452.71 172.709,451.525C173.765,450.34 175.382,449.748 177.562,449.748L183.037,449.748L183.037,455.132L175.418,455.132C173.528,455.132 172.583,456.243 172.583,458.463L171.127,456.992Z" style="fill:rgb(39,39,42);fill-rule:nonzero;"/>
        </g>
        <g transform="matrix(1.25705,0,0,1.25705,2.714684,-496.165451)">
            <path d="M206.962,495.932C203.122,495.932 199.845,495.132 197.13,493.532C194.415,491.932 192.345,489.582 190.92,486.482C189.495,483.382 188.783,479.607 188.783,475.157C188.783,470.657 189.495,466.87 190.92,463.795C192.345,460.72 194.415,458.382 197.13,456.782C199.845,455.182 203.122,454.382 206.962,454.382C210.672,454.382 213.835,455.12 216.45,456.595C219.065,458.07 221.061,460.232 222.436,463.082C223.811,465.932 224.498,469.457 224.498,473.657L224.498,476.267L193.537,476.267L193.537,471.498L221.708,471.498L217.598,474.692L217.598,472.952C217.598,468.493 216.74,465.223 215.025,463.143C213.31,461.063 210.622,460.023 206.962,460.023C203.303,460.023 200.608,461.063 198.877,463.143C197.148,465.223 196.283,468.493 196.283,472.952L196.283,477.227C196.283,481.668 197.148,484.928 198.877,487.007C200.608,489.087 203.303,490.127 206.962,490.127C209.403,490.127 211.311,489.745 212.686,488.98C214.061,488.215 215.048,487.282 215.648,486.182C216.248,485.082 216.548,484.047 216.548,483.077L216.548,482.777L223.883,482.777C222.983,487.077 221.093,490.345 218.212,492.58C215.332,494.815 211.582,495.932 206.962,495.932Z" style="fill:rgb(39,39,42);fill-rule:nonzero;"/>
        </g>
        <g transform="matrix(1.25705,0,0,1.25705,2.714684,-496.165451)">
            <path d="M234.712,495.182L234.712,460.517L229.508,460.517L229.508,455.132L240.637,455.132L240.637,462.302L242.618,462.302C243.618,459.712 244.977,457.8 246.697,456.566C248.417,455.331 250.668,454.713 253.448,454.713L259.162,454.713L259.162,460.517L250.673,460.517C247.603,460.517 245.348,461.35 243.908,463.016C242.468,464.681 241.748,467.328 241.748,470.957L241.748,495.182L234.712,495.182Z" style="fill:rgb(39,39,42);fill-rule:nonzero;"/>
        </g>
        <g transform="matrix(1.25705,0,0,1.25705,2.714684,-496.165451)">
            <path d="M280.237,495.932C276.397,495.932 273.12,495.132 270.405,493.532C267.69,491.932 265.62,489.582 264.195,486.482C262.77,483.382 262.058,479.607 262.058,475.157C262.058,470.657 262.77,466.87 264.195,463.795C265.62,460.72 267.69,458.382 270.405,456.782C273.12,455.182 276.397,454.382 280.237,454.382C283.947,454.382 287.11,455.12 289.725,456.595C292.34,458.07 294.336,460.232 295.711,463.082C297.086,465.932 297.773,469.457 297.773,473.657L297.773,476.267L266.812,476.267L266.812,471.498L294.983,471.498L290.873,474.692L290.873,472.952C290.873,468.493 290.015,465.223 288.3,463.143C286.585,461.063 283.897,460.023 280.237,460.023C276.578,460.023 273.883,461.063 272.152,463.143C270.423,465.223 269.558,468.493 269.558,472.952L269.558,477.227C269.558,481.668 270.423,484.928 272.152,487.007C273.883,489.087 276.578,490.127 280.237,490.127C282.678,490.127 284.586,489.745 285.961,488.98C287.336,488.215 288.323,487.282 288.923,486.182C289.523,485.082 289.823,484.047 289.823,483.077L289.823,482.777L297.158,482.777C296.258,487.077 294.368,490.345 291.487,492.58C288.607,494.815 284.857,495.932 280.237,495.932Z" style="fill:rgb(39,39,42);fill-rule:nonzero;"/>
        </g>
        <g transform="matrix(1.25705,0,0,1.25705,2.714684,-496.165451)">
            <path d="M307.987,495.182L307.987,460.517L302.783,460.517L302.783,455.132L313.912,455.132L313.912,462.032L315.893,462.032C316.893,459.422 318.302,457.495 320.122,456.25C321.942,455.005 324.272,454.382 327.112,454.382C331.303,454.382 334.475,455.627 336.63,458.117C338.785,460.607 339.862,464.297 339.862,469.188L339.862,489.798L345.098,489.798L345.098,495.182L332.827,495.182L332.827,470.627C332.827,466.975 332.115,464.323 330.69,462.669C329.265,461.015 327.018,460.188 323.948,460.188C320.878,460.188 318.623,461.015 317.183,462.669C315.743,464.323 315.023,466.975 315.023,470.627L315.023,495.182L307.987,495.182Z" style="fill:rgb(39,39,42);fill-rule:nonzero;"/>
        </g>
        <g transform="matrix(1.25705,0,0,1.25705,2.714684,-496.165451)">
            <path d="M359.348,495.182C356.178,495.182 354.593,493.588 354.593,490.398L354.593,455.132L357.158,447.107L361.673,447.107L361.673,489.798L371.018,489.798L371.018,495.182L359.348,495.182ZM347.348,460.517L347.348,455.132L371.018,455.132L371.018,460.517L347.348,460.517Z" style="fill:rgb(39,39,42);fill-rule:nonzero;"/>
        </g>
        <g transform="matrix(1.25705,0,0,1.25705,2.714684,-496.165451)">
            <path d="M380.948,495.182L380.948,460.517L375.008,460.517L375.008,455.132L388.027,455.132L388.027,495.182L380.948,495.182ZM380.243,450.288L380.243,443.432L388.462,443.432L388.462,450.288L380.243,450.288Z" style="fill:rgb(160,160,174);fill-rule:nonzero;"/>
        </g>
        <g transform="matrix(1.25705,0,0,1.25705,2.714684,-496.165451)">
            <path d="M409.958,495.932C405.977,495.932 402.867,494.95 400.627,492.985C398.387,491.02 397.268,488.268 397.268,484.727C397.268,481.168 398.452,478.388 400.822,476.388C403.192,474.388 406.687,473.153 411.308,472.682L422.498,471.573L422.498,476.388L413.318,477.288C410.278,477.578 408.053,478.235 406.643,479.26C405.232,480.285 404.527,481.773 404.527,483.723L404.527,484.127C404.527,486.147 405.237,487.673 406.657,488.703C408.077,489.733 410.132,490.248 412.823,490.248C416.053,490.248 418.473,489.533 420.083,488.103C421.693,486.673 422.498,484.513 422.498,481.623L422.498,469.577C422.498,466.307 421.825,463.925 420.48,462.431C419.135,460.936 416.992,460.188 414.052,460.188C411.973,460.188 410.295,460.518 409.02,461.178C407.745,461.838 406.82,462.7 406.245,463.766C405.67,464.831 405.383,465.988 405.383,467.238L405.383,467.538L398.152,467.538C398.852,463.118 400.54,459.82 403.215,457.645C405.89,455.47 409.547,454.382 414.187,454.382C419.247,454.382 423.077,455.64 425.677,458.155C428.277,460.67 429.577,464.377 429.577,469.277L429.577,489.798L434.783,489.798L434.783,495.182L428.318,495.182C425.178,495.182 423.608,493.613 423.608,490.473L423.608,488.402L421.702,488.402C420.723,490.972 419.298,492.87 417.427,494.095C415.558,495.32 413.068,495.932 409.958,495.932Z" style="fill:rgb(160,160,174);fill-rule:nonzero;"/>
        </g>
        <g transform="matrix(1.25705,0,0,1.25705,2.714684,-496.165451)">
            <rect x="440.393" y="487.173" width="8.325" height="8.01" style="fill:rgb(160,160,174);fill-rule:nonzero;"/>
        </g>
        <g transform="matrix(1.25705,0,0,1.25705,2.714684,-496.165451)">
            <path d="M469.658,495.932C465.677,495.932 462.567,494.95 460.327,492.985C458.087,491.02 456.968,488.268 456.968,484.727C456.968,481.168 458.152,478.388 460.522,476.388C462.892,474.388 466.387,473.153 471.008,472.682L482.198,471.573L482.198,476.388L473.018,477.288C469.978,477.578 467.753,478.235 466.343,479.26C464.932,480.285 464.227,481.773 464.227,483.723L464.227,484.127C464.227,486.147 464.937,487.673 466.357,488.703C467.777,489.733 469.832,490.248 472.523,490.248C475.753,490.248 478.173,489.533 479.783,488.103C481.393,486.673 482.198,484.513 482.198,481.623L482.198,469.577C482.198,466.307 481.525,463.925 480.18,462.431C478.835,460.936 476.692,460.188 473.752,460.188C471.673,460.188 469.995,460.518 468.72,461.178C467.445,461.838 466.52,462.7 465.945,463.766C465.37,464.831 465.083,465.988 465.083,467.238L465.083,467.538L457.852,467.538C458.552,463.118 460.24,459.82 462.915,457.645C465.59,455.47 469.247,454.382 473.887,454.382C478.947,454.382 482.777,455.64 485.377,458.155C487.977,460.67 489.277,464.377 489.277,469.277L489.277,489.798L494.483,489.798L494.483,495.182L488.018,495.182C484.878,495.182 483.308,493.613 483.308,490.473L483.308,488.402L481.402,488.402C480.423,490.972 478.998,492.87 477.127,494.095C475.258,495.32 472.768,495.932 469.658,495.932Z" style="fill:rgb(160,160,174);fill-rule:nonzero;"/>
        </g>
        <g transform="matrix(1.25705,0,0,1.25705,2.714684,-496.165451)">
            <path d="M501.983,505.082L501.983,460.517L496.702,460.517L496.702,455.132L507.908,455.132L507.908,462.557L509.858,462.557C510.977,459.807 512.507,457.757 514.447,456.407C516.387,455.057 518.798,454.382 521.677,454.382C524.917,454.382 527.7,455.193 530.025,456.813C532.35,458.432 534.144,460.785 535.409,463.87C536.675,466.955 537.308,470.718 537.308,475.157C537.308,479.547 536.68,483.297 535.425,486.407C534.17,489.518 532.38,491.883 530.055,493.503C527.73,495.123 524.937,495.932 521.677,495.932C518.837,495.932 516.485,495.302 514.62,494.042C512.755,492.782 511.288,490.847 510.218,488.238L508.268,488.238C508.518,490.588 508.705,492.458 508.83,493.848C508.955,495.238 509.018,496.477 509.018,497.567L509.018,505.082L501.983,505.082ZM519.398,490.127C522.998,490.127 525.64,489.095 527.325,487.03C529.01,484.965 529.852,481.727 529.852,477.317L529.852,472.998C529.852,468.558 529.01,465.313 527.325,463.263C525.64,461.213 522.998,460.188 519.398,460.188C515.848,460.188 513.23,461.213 511.545,463.263C509.86,465.313 509.018,468.558 509.018,472.998L509.018,477.317C509.018,481.727 509.86,484.965 511.545,487.03C513.23,489.095 515.848,490.127 519.398,490.127Z" style="fill:rgb(160,160,174);fill-rule:nonzero;"/>
        </g>
        <g transform="matrix(1.25705,0,0,1.25705,2.714684,-496.165451)">
            <path d="M547.733,505.082L547.733,460.517L542.452,460.517L542.452,455.132L553.658,455.132L553.658,462.557L555.608,462.557C556.727,459.807 558.257,457.757 560.197,456.407C562.137,455.057 564.548,454.382 567.427,454.382C570.667,454.382 573.45,455.193 575.775,456.813C578.1,458.432 579.894,460.785 581.159,463.87C582.425,466.955 583.058,470.718 583.058,475.157C583.058,479.547 582.43,483.297 581.175,486.407C579.92,489.518 578.13,491.883 575.805,493.503C573.48,495.123 570.687,495.932 567.427,495.932C564.587,495.932 562.235,495.302 560.37,494.042C558.505,492.782 557.038,490.847 555.968,488.238L554.018,488.238C554.268,490.588 554.455,492.458 554.58,493.848C554.705,495.238 554.768,496.477 554.768,497.567L554.768,505.082L547.733,505.082ZM565.148,490.127C568.748,490.127 571.39,489.095 573.075,487.03C574.76,484.965 575.602,481.727 575.602,477.317L575.602,472.998C575.602,468.558 574.76,465.313 573.075,463.263C571.39,461.213 568.748,460.188 565.148,460.188C561.598,460.188 558.98,461.213 557.295,463.263C555.61,465.313 554.768,468.558 554.768,472.998L554.768,477.317C554.768,481.727 555.61,484.965 557.295,487.03C558.98,489.095 561.598,490.127 565.148,490.127Z" style="fill:rgb(160,160,174);fill-rule:nonzero;"/>
        </g>
        <g transform="matrix(0.11964,0,0,0.11964,18.362398,6.332801)">
            <path d="M770,366.6C757.3,370 748.4,377.3 743.1,388.4L740.1,394.9L672.3,395.3C606.9,395.6 604.2,395.7 594.8,397.8C546.7,408.7 509.4,441.9 494.6,487.3C488.2,506.5 488,510.4 488,591.3C488,640.6 487.6,665.6 486.9,669.2C483.5,685.5 469,700.1 451.1,705.4C439.3,708.9 420.5,706.7 410.4,700.8C405.3,697.8 397.1,698.6 393,702.5C388.3,707 387.4,711.5 388.8,722.6C391.7,745.6 405.6,766.3 425.1,776.5C428.9,778.5 432,780.4 432,780.8C432,781.2 430,782.5 427.6,783.8C421.5,787.1 409.8,798 404.6,805.4C396.4,817 391.1,830 389.1,843.7C387.7,853 387.7,930.3 389,939C393.9,969.9 415.6,994.8 445.3,1003.7C450.9,1005.4 457.1,1006.3 464.7,1006.7L475.8,1007.3L476.2,1052.9L476.7,1098.5L479.4,1108.8C491.7,1155.1 524.2,1187.1 570.9,1198.7C576.9,1200.3 595.3,1200.4 777.5,1200.7C920.9,1201 980.3,1200.8 987.4,1200C1023.2,1195.9 1056.3,1174 1075.4,1141.7C1080.9,1132.3 1086.5,1118.5 1089.2,1107.3C1091.2,1099.2 1091.3,1095.1 1091.7,1052.9L1092.1,1007.3L1103.3,1006.7C1133.4,1005.3 1158.7,988.9 1171.5,962.5C1179.3,946.2 1179.3,946.3 1179.7,895.3C1180.1,857.1 1179.9,848.7 1178.5,840.8C1176.8,831.1 1172.5,819.8 1166.8,810.3C1161.9,802.1 1151.2,791.1 1143.2,786C1139.3,783.5 1136.1,781.2 1136.1,780.8C1136,780.4 1136.9,779.9 1138,779.5C1142.7,778 1155.1,768.8 1161.2,762.2C1171.8,750.7 1178.1,736.1 1179.6,719.6C1180.4,711 1179.2,706.5 1175.1,702.6C1170.7,698.3 1164.6,698 1156.8,701.5C1147.6,705.7 1141.5,707 1131.4,707C1110.6,707 1093.3,696.6 1084.4,678.6L1080.5,670.6L1080,589.1L1079.4,507.5L1076.3,496C1067.3,462.3 1048.7,435.9 1021,417.4C1006.4,407.7 992.9,402.1 973.8,397.8C964.9,395.8 961.2,395.6 896.3,395.3L828.1,394.9L825.2,388.7C821.5,380.7 817.9,376.5 810.7,371.9C800.7,365.5 782.9,363.1 770,366.6M812.8,462C848.4,464.6 891.1,472.3 903.6,478.5C912.3,482.8 919.9,490.7 923.2,499C925.4,504.3 925.5,506 925.8,540.5C926,560.3 925.8,578 925.5,579.8C924.7,584.4 919.6,589.8 915,591C911.7,591.9 908.5,591.4 893.8,588.1C850.9,578.4 826.6,575.6 785,575.5C744.2,575.5 716.2,578.5 678.5,587.1C671.4,588.7 663.4,590.5 660.8,591.1C656.8,592 655.4,591.8 651.6,590.1C648.8,588.9 646.2,586.8 645,584.8C643,581.6 643,580.3 643.2,541.5C643.5,501.9 643.5,501.5 645.8,496.8C652.1,484.1 663,476.9 683,472.6C727.8,462.8 772.4,459.2 812.8,462M835.9,629.5C907.5,635.7 976.6,654.2 1032.1,682C1039.6,685.8 1046.1,689.4 1046.4,689.9C1047.4,691.5 1038.4,701.5 1030,708.3C1015.3,720 1005.1,723.5 987.5,722.8C978,722.4 975.1,721.8 966,718.6C906.7,697.2 862.7,688 805.7,684.9C744.9,681.5 675.3,692.5 612.3,715.4C594.8,721.7 588.9,723 577.2,723C561.5,723 549.1,718 535.9,706.3C526.1,697.6 521.8,692.5 522.2,690.3C522.4,689.1 527.3,686.1 536,681.8C598.3,650.8 678.5,631.4 760.5,627.6C775.5,626.9 818.4,628 835.9,629.5M838.5,727.4C873.5,732 904.8,739.6 938.5,751.5C965.6,761.1 971,762.3 989.5,762.4C1006.3,762.5 1014,761.3 1025,757C1027.8,755.9 1030.6,755 1031.3,755C1033.6,755 1043.1,782.2 1047.4,801C1050.4,814.3 1052.2,829.3 1052.3,842.7L1052.5,856.5L1024.2,856.5L1016.8,848.8C1001.1,832.5 985.7,829.5 916,829.5C862.9,829.5 840.2,831.7 827,838.2C820.8,841.2 811.1,849.7 807.9,854.9L806.4,857.3L784.6,857.4L762.9,857.5L757.3,851.1C746.9,839.4 735.9,834.1 717.5,832.1C694.3,829.5 673.3,828.7 641,829.3C577.7,830.5 566.4,832.9 551.2,848.8L543.9,856.5L515.5,856.5L515.6,844C515.8,821.1 521.1,794.6 530.5,768.5C533.1,761.3 535.4,755.3 535.6,755.1C535.8,754.8 539.5,755.9 543.8,757.4C559.9,763 577.1,764.3 595,761.5C600.7,760.6 613.4,757 626.5,752.6C671.3,737.5 700.3,730.7 737,726.6C757.8,724.2 757.6,724.2 789.5,724.5C814.7,724.8 822.6,725.3 838.5,727.4M472.9,836.6L476,837.2L476,967L469.2,967C452.6,967 438,957.9 431.2,943.2L428.5,937.5L428.5,866.5L431.1,860.9C437.1,848.1 449,839.3 463.5,837C466.3,836.6 468.8,836.2 469.1,836.1C469.5,836.1 471.2,836.3 472.9,836.6M1105.6,837.1C1118.8,839.5 1130.5,848.2 1136.2,859.8L1139.5,866.5L1139.5,937.5L1136.3,944.1C1132.2,952.4 1125.2,959.1 1116.2,963.3C1110.7,965.8 1108,966.5 1100.8,966.8L1092,967.2L1092,837.9L1094.3,837C1097.3,835.8 1098.6,835.8 1105.6,837.1M710,861.3C722.2,862.9 726.8,864.8 731.4,870.2C738,877.9 738.1,885.1 731.9,918.2C728.7,935.2 725.1,947.9 721.8,953.8C715.5,964.7 705.8,972.5 694,976C681.5,979.7 656.7,980.9 631.9,979C611.2,977.4 601.8,973.9 592.5,964.6C583.2,955.4 578.8,942.9 573.6,912C568.8,882.5 569,876.3 575.6,869C580.2,863.9 585.3,862.4 601.5,861C608.7,860.5 616.5,859.8 619,859.6C629.5,858.7 700,860 710,861.3M970.5,861.3C983.9,862.9 986.2,863.6 990.9,867.5C998.8,874.2 999.6,881.3 995.4,907.8C992.3,927.6 988.2,944.6 984.5,952.3C978.1,965.9 963.8,975.8 947.6,978C933.5,979.8 908.3,980.3 893.5,979.1C872.9,977.3 863.8,973.7 853.9,963.3C848.1,957.2 845.5,952.9 842.5,944.1C837.4,928.9 830.4,886.7 831.9,880C834.9,867 841.9,862.8 864,861C872,860.4 879.6,859.7 881,859.5C887.5,858.6 959.5,860 970.5,861.3M537.8,891.3C539.5,893.1 540.4,896.9 542.5,910C549.4,954.3 555.4,970.4 571,986.1C578.3,993.5 580.9,995.4 589,999.3C606.5,1007.6 621,1009.5 660.7,1008.7C680.2,1008.3 689.4,1007.7 694.4,1006.6C698.2,1005.7 701.7,1005.3 702.1,1005.7C702.5,1006.2 703.1,1009.1 703.5,1012.2C704.2,1017.9 704.2,1017.9 701.4,1018.5C665.9,1026.4 641,1043.8 629.2,1068.8C624.7,1078.2 623.4,1086.5 625.4,1093.2C628.6,1104.2 637.3,1110.5 649.1,1110.4C654.7,1110.3 657.1,1109.7 663.7,1106.6L671.7,1102.8L677.9,1106.9C688.3,1113.6 694,1115.4 705.5,1115.4C717.6,1115.5 724,1113.8 733,1107.9L739.5,1103.7L743,1105.9C757.7,1115 769.2,1118.5 785,1118.4C800.4,1118.4 812.3,1114.8 825.1,1106.3L828.8,1103.8L835.5,1107.9C845.8,1114.1 850.9,1115.5 862.5,1115.4C874.2,1115.4 880.6,1113.4 890.7,1106.9L897.1,1102.7L903.3,1105.9C917,1112.8 928,1112 936.5,1103.5C942.6,1097.4 944.7,1090.4 943,1081.4C942.3,1077.9 940.5,1072.3 938.8,1068.8C927,1043.7 901.7,1026.1 866.7,1018.5C863.9,1017.9 863.9,1017.9 864.5,1012.2C864.9,1009.1 865.5,1006.2 865.9,1005.8C866.3,1005.4 870.2,1005.8 874.5,1006.7C881.2,1008.2 888,1008.5 916,1008.4C954.5,1008.4 961.9,1007.4 977.1,1000.3C1006.4,986.5 1017.8,965 1026,908.5C1027.1,900.9 1028.7,893.6 1029.5,892.3C1031.5,889.3 1033.8,888.8 1044,889.2L1052.5,889.5L1052.5,1093.5L1050.2,1101.5C1041.7,1131 1016.3,1154.6 987.6,1159.9C983.4,1160.7 922.4,1161 783.8,1161C566.2,1161 580.5,1161.4 565,1155C547.6,1147.8 532.3,1133.5 523.6,1116.3C522.2,1113.5 519.8,1107.2 518.3,1102.3L515.5,1093.5L515.2,992.6C515.1,937.1 515.2,891 515.4,890.3C515.8,889.4 518.6,889 525.8,889C534.7,889 535.8,889.2 537.8,891.3M795.3,890.4C800.9,892.7 801.8,894.6 804,908.9C809.8,946.5 815.5,964.5 826.5,979.8C843.3,1003.3 830.7,1032.6 800.3,1040.5C792.8,1042.5 775.2,1042.5 767.6,1040.5C753.4,1036.8 743.2,1028.9 737.7,1017.3C734.9,1011.3 734.5,1009.5 734.5,1002C734.5,992 736,987.5 742.7,978.2C753,963.7 759.6,942 765.1,904.7C766.4,895.5 768.3,891.6 772.4,890C775.8,888.6 791.7,888.9 795.3,890.4" style="fill:rgb(39,39,42);fill-rule:nonzero;"/>
        </g>
    </g>
</svg>
