<?xml version="1.0" encoding="UTF-8" standalone="no"?>
<!DOCTYPE svg PUBLIC "-//W3C//DTD SVG 1.1//EN" "http://www.w3.org/Graphics/SVG/1.1/DTD/svg11.dtd">
<svg width="100%" height="100%" viewBox="0 0 800 84" version="1.1" xmlns="http://www.w3.org/2000/svg" xmlns:xlink="http://www.w3.org/1999/xlink" xml:space="preserve" xmlns:serif="http://www.serif.com/" style="fill-rule:evenodd;clip-rule:evenodd;stroke-linejoin:round;stroke-miterlimit:2;">
    <g transform="matrix(1,0,0,1,0,-8.35812)">
        <g transform="matrix(2.379536,0,0,2.379536,-275.287515,-93.171541)">
            <path d="M137.49,42.668L119.19,42.668C117.24,42.668 115.69,44.268 115.69,46.168L115.69,74.218C115.69,76.118 117.24,77.668 119.19,77.668L137.49,77.668C139.39,77.668 140.99,76.118 140.99,74.218L140.99,66.168L130.89,66.168L130.89,72.768L125.79,72.768L125.79,47.618L130.89,47.618L130.89,56.918L140.99,56.918L140.99,46.168C140.99,44.268 139.39,42.668 137.49,42.668Z" style="fill-rule:nonzero;"/>
            <path d="M166.94,42.668L145.29,42.668L145.29,77.668L155.39,77.668L155.39,66.268L160.29,77.668L170.44,77.668L165.19,66.418L166.94,66.418C168.84,66.418 170.44,64.868 170.44,62.918L170.44,46.168C170.44,44.268 168.84,42.668 166.94,42.668ZM160.34,47.618L160.34,61.468L155.39,61.468L155.39,47.618L160.34,47.618Z" style="fill-rule:nonzero;"/>
            <path d="M195.99,42.668L177.69,42.668C175.74,42.668 174.19,44.268 174.19,46.168L174.19,74.168C174.19,76.118 175.74,77.668 177.69,77.668L195.99,77.668C197.89,77.668 199.49,76.118 199.49,74.168L199.49,46.168C199.49,44.268 197.89,42.668 195.99,42.668ZM189.39,72.768L184.29,72.768L184.29,47.618L189.39,47.618L189.39,72.768Z" style="fill-rule:nonzero;"/>
            <path d="M225.44,42.668L203.79,42.668L203.79,77.668L213.89,77.668L213.89,66.918L225.44,66.918C227.34,66.918 228.94,65.368 228.94,63.418L228.94,46.168C228.94,44.268 227.34,42.668 225.44,42.668ZM213.89,61.968L213.89,47.618L218.84,47.618L218.84,61.968L213.89,61.968Z" style="fill-rule:nonzero;"/>
            <path d="M251.19,55.268L254.49,77.668L264.04,77.668L270.14,42.668L260.04,42.668L257.74,63.218L254.74,42.668L247.59,42.668L244.59,63.218L242.24,42.668L232.14,42.668L238.29,77.668L247.79,77.668L251.14,55.268L251.19,55.268Z" style="fill-rule:nonzero;"/>
            <path d="M273.94,46.168L273.94,77.668L284.04,77.668L284.04,61.518L288.99,61.518L288.99,77.668L299.09,77.668L299.09,42.668L277.44,42.668C275.49,42.668 273.94,44.268 273.94,46.168ZM284.04,47.618L288.99,47.618L288.99,56.618L284.04,56.618L284.04,47.618Z" style="fill-rule:nonzero;"/>
            <path d="M325.14,42.668L303.49,42.668L303.49,77.668L313.59,77.668L313.59,66.268L318.49,77.668L328.64,77.668L323.39,66.418L325.14,66.418C327.04,66.418 328.64,64.868 328.64,62.918L328.64,46.168C328.64,44.268 327.04,42.668 325.14,42.668ZM318.54,47.618L318.54,61.468L313.59,61.468L313.59,47.618L318.54,47.618Z" style="fill-rule:nonzero;"/>
            <path d="M332.54,42.668L332.54,77.668L352.69,77.668L352.69,72.768L342.64,72.768L342.64,61.518L350.09,61.518L350.09,56.618L342.64,56.618L342.64,47.618L352.69,47.618L352.69,42.668L332.54,42.668Z" style="fill-rule:nonzero;"/>
            <rect x="355.99" y="69.518" width="8.1" height="8.15" style="fill-rule:nonzero;"/>
            <path d="M368.19,46.168L368.19,77.668L378.29,77.668L378.29,61.518L383.24,61.518L383.24,77.668L393.34,77.668L393.34,42.668L371.69,42.668C369.74,42.668 368.19,44.268 368.19,46.168ZM378.29,47.618L383.24,47.618L383.24,56.618L378.29,56.618L378.29,47.618Z" style="fill-rule:nonzero;"/>
            <path d="M419.39,42.668L397.74,42.668L397.74,77.668L407.84,77.668L407.84,66.918L419.39,66.918C421.29,66.918 422.89,65.368 422.89,63.418L422.89,46.168C422.89,44.268 421.29,42.668 419.39,42.668ZM407.84,61.968L407.84,47.618L412.79,47.618L412.79,61.968L407.84,61.968Z" style="fill-rule:nonzero;"/>
            <path d="M448.39,42.668L426.74,42.668L426.74,77.668L436.84,77.668L436.84,66.918L448.39,66.918C450.29,66.918 451.89,65.368 451.89,63.418L451.89,46.168C451.89,44.268 450.29,42.668 448.39,42.668ZM436.84,61.968L436.84,47.618L441.79,47.618L441.79,61.968L436.84,61.968Z" style="fill-rule:nonzero;"/>
        </g>
    </g>
</svg>
