<svg xmlns="http://www.w3.org/2000/svg" viewBox="0 0 1568 1568"><path d="M776.7 410c-6.5 1.1-12.2 3.5-16.4 6.7-4 3-8.9 9.8-9.8 13.6-.8 2.8 4.1 2.3-46 4.7-28.3 1.3-63.3 4.5-72.3 6.5-33 7.7-62.8 30.7-79.5 61.5-4.7 8.6-9.2 21.8-10.7 31-1.7 10.9-2.9 50.7-3 97.2v40.7l-2.8 7.9c-5.9 16.5-16.7 29.9-27.8 34.3-8 3.1-20.2 3.2-29.7.1-10.8-3.5-14.2-.6-12 10.3 2.6 12.3 14.1 25.4 28.8 32.6 4.7 2.3 8.5 4.8 8.5 5.5 0 1.7-17 19.4-21.8 22.8-7.4 5.1-6.1 9.9 3.7 13.5l6 2.3-2 3.1c-1.1 1.8-3.1 6.8-4.6 11.2-2.6 7.8-2.7 8.7-3.1 37.2-.4 32 .3 39.6 4.5 50.2 9.3 23.5 29.7 37.7 58.4 40.6l6.6.6.6 18.7c.4 10.3.7 30.4.7 44.7 0 30 .9 39 5.2 52.4 11 34.5 35.1 60.2 68 72.2 17.5 6.5 11.1 6.2 147.8 6.6 129.8.5 142.6.2 157.3-3.7 35.2-9.2 65.1-37.2 77-72.1 5.5-15.8 5.9-20.7 6.4-71.6l.5-47.2 5.6-.5c27.1-2.7 46.2-14.7 57.1-36.2 6.1-12.1 6.6-15.6 6.6-49.9 0-34.2-.6-38.8-6.7-50.8-2.1-4.2-2.5-5.9-1.6-6.2.7-.2 3.5-1.2 6.3-2.2 7.8-2.9 9.1-8.1 3.1-12.2-6.1-4.3-22.6-21.8-22.6-24 0-.4 3.9-2.7 8.6-5 15.9-7.9 27.9-22.8 29.1-36.2.5-5.3.4-5.8-2-7.4-2.5-1.6-3-1.6-11.4.9-9.3 2.8-15.1 3.2-22.1 1.6-14.9-3.5-25.6-14.4-33.1-33.9l-2.9-7.6-.7-64c-.3-35.2-1-67.9-1.6-72.7-4.9-44.9-39.1-83.5-83.9-94.7-17.9-4.5-67.8-9-101.7-9.2-18.9-.1-23.6-.7-24.2-3.4-.6-3.4-6.8-11.9-10.5-14.3-8-5.4-20.2-7.9-29.9-6.2m43.8 68c29.8 2.2 60.8 8.4 71.8 14.2 13.5 7.2 22.3 20.6 24.7 37.9 3.5 24.4 6.3 87.6 4 90.4-1.6 1.9-4.6 1.9-10.1-.1-8.9-3.1-39.8-10.4-54.4-12.8-48.3-8-89.3-8.4-135.5-1.5-23 3.5-46 8.5-63 13.8-9.1 2.9-11.8 2.8-13.1-.6-2-5.3 2.4-77.3 5.7-93.8 3.1-15.3 12.1-27.3 25.6-33.9 11.1-5.5 41.3-11.3 69.3-13.5 16.1-1.2 58.8-1.3 75-.1M832 636.4c60.1 8.3 108 23.8 156.2 50.3 7.5 4.1 14.6 8.4 15.8 9.5 2 1.9 2 2 .3 4.9-3 5.1-15.5 16.4-21.2 19.3-7.9 4-18 5.9-27.5 5.1-10-.8-16.7-2.6-46.8-12.4-38.3-12.4-58.3-17.5-85.8-21.8-14.6-2.2-61.3-2.5-76-.5-26.8 3.8-50.4 9.8-90.4 22.8-14.3 4.7-28.7 9.1-32 9.9-20.9 4.8-38.1 1.4-50.3-9.8-5.7-5.2-12.3-13.4-12.3-15.2 0-4.5 47.1-28.2 79-39.8 32-11.5 73.7-20.7 108-23.6 16.2-1.4 69.3-.6 83 1.3M806 722c25.6 2.2 52 8 88.5 19.4 35.2 10.9 43.4 12.7 62.8 13.3 9.2.3 16.7.9 16.7 1.3 0 .5 1.1 7.5 2.5 15.6 6.7 40.9 6.5 36.9 6.6 152.6 0 106.1-.2 113.7-3.7 125.8-7.1 24.6-28.9 46.3-54.4 54.2l-7.5 2.3-129.4.3c-142.8.3-139.5.4-154.8-5.9-23.4-9.8-40.6-30.3-46.9-55.9-1.4-5.6-1.7-21-2.6-107-.9-76.7-.8-103.7.1-113.8 1.1-12.7 7.2-57.6 8.8-65.5l.8-3.7 16-.4c19.3-.4 24.1-1.4 63-13.1 42.6-12.8 62.8-17.4 86.2-19.4 13-1.2 34.3-1.2 47.3-.1m-256.1 82.9c1.6.9 1.7 4.8 2 55.2l.3 54.2-7.3-.7c-14.7-1.5-25-8.1-30.8-19.8l-3.1-6.1v-29.6c0-29.2.1-29.7 2.4-34.8 3-6.3 8.7-12.2 14.8-15.2 7.3-3.5 18.1-5.1 21.7-3.2m487.8 3.2c7.5 3.6 13.5 10 16.3 17.5 1.8 5 2 7.8 2 31.8 0 28.8-.5 32.3-5.9 40.8-5.6 8.8-15.5 14.1-28.8 15.4l-6.3.7v-54.6c0-62.2-1.1-55.9 10-55.1 4.5.3 8.4 1.4 12.7 3.5"/><path d="M640.5 793c-8.7 2.1-16.4 8.1-18.5 14.4-.9 2.7-.8 4.1.4 6.9 2.8 6.8.5 6.5 59.6 7.2 50.7.6 53.7.6 56.9-1.2 5.5-2.9 7.5-6.5 7.6-13.3 0-6.8-2.1-10.4-7.6-13.2-3.1-1.6-7.5-1.8-49.4-1.7-25.3.1-47.3.4-49 .9m186.9.4c-5.5 2.4-7.4 6-7.4 13.7 0 5.8.4 7.2 2.6 9.8 4.4 5.3 6 5.4 62.9 4.7 47.8-.6 52.2-.8 54.5-2.5 8.7-6.2 5-17.5-7.8-23.8l-5.7-2.8-48-.2c-38.8-.2-48.6 0-51.1 1.1m-151.6 40c-5.8 2.1-8.7 4.3-11.9 9.4-2.7 4.3-2.9 5.3-2.9 14.1 0 11 1.6 15.6 7.1 20.8 4.7 4.4 9.8 6.3 17.1 6.3 7.8 0 13.1-2.3 17.7-7.5 4.9-5.7 6.1-9.3 6.1-19.2 0-6.7-.5-9.6-2.1-13-2.5-5.1-7.6-9.6-12.8-11.2-5.1-1.5-13.7-1.3-18.3.3m195.4-.1c-5 1.9-9.8 6.2-12.1 11-1.7 3.4-2.1 6.2-2.1 13.3 0 10.6 1.8 15.2 7.8 20.6 8.7 7.9 23.6 7.9 32.3.1 6.4-5.8 7.9-9.7 7.9-20.5 0-6.9-.5-10.4-1.9-13.4-2.2-4.9-7.8-9.7-13-11.3-4.9-1.4-14.6-1.3-18.9.2m-101.9 29.4c-4.6.9-7 5.5-7.7 14.5-1.3 15.9-2.9 22.4-11.3 45.8-10.3 28.5-11.2 34.2-6.6 43 3.4 6.7 9.4 11.4 16.3 12.9 2.9.6 15.4 1.1 28.6 1.1 26.5 0 28.4-.4 31-6.7 1.7-4 1.1-8.7-1.5-11.7-3.5-4-7.1-4.6-29.5-4.6-11.8 0-22.1-.3-23-.6-2.9-1.1-1.7-7.1 5.4-26 10.5-27.8 11.3-31.3 11.4-48.1.1-13.9 0-14.3-2.4-16.7-2.6-2.6-6.8-3.8-10.7-2.9m-42 160.7c-6.1 2.7-8.2 12.7-3.7 17.7 3.4 3.8 7.2 4 62.1 3.7l53.3-.3 3.1-3.2c2.6-2.6 3.2-4 3.3-7.7.1-3.9-.4-5-3.2-7.8l-3.2-3.3-54.3-.2c-44.7-.2-54.8 0-57.4 1.1"/></svg>