<svg xmlns="http://www.w3.org/2000/svg" viewBox="0 0 1568 1568"><path d="M777.5 501.6c-11.1 2.8-18.1 9.4-19.3 18.2l-.7 4.7-25.5.6c-62.7 1.6-86.2 6.4-111.2 22.5-9.1 5.8-22.8 19.6-29.2 29.3-9.1 13.7-15.9 29.7-19.3 45.5-1.2 5.4-1.7 17.9-2.2 53.6-.8 50.7-.8 50.9-7 61.5-4.8 8.4-11.6 15.1-18.7 18.6-8.7 4.3-19.2 4.6-30.1 1-6.8-2.3-7.3-2.3-9.7-.7-5.2 3.4-4.4 10.2 2.5 20.5 5.2 7.8 13.5 14.4 22.8 18l7.3 2.8-6.6 7c-3.6 3.9-8.8 8.6-11.5 10.4-10.3 7-8.4 12.5 5.2 16 2.6.6 4.7 1.3 4.7 1.5 0 .3-1.6 2.8-3.5 5.7-5.8 8.8-6.8 14.2-7.3 40.5-.5 29.4.5 37.5 6 48.3 7.3 14.2 21 24.6 35.4 26.9 3.3.6 8.9 1.2 12.7 1.6l6.7.6v22.1c0 29.1 2.2 42.5 9.7 60.7 20 48.7 69.5 84.8 124.6 90.9 13 1.5 133.1 1.5 145.2 0 26.9-3.3 52.3-14 75-31.7 23.6-18.4 40.1-41.6 49.1-68.8 5.1-15.6 6.4-26.2 6.4-51.5v-21.6l8.7-.7c25.6-2.1 43.3-15.6 49.9-38.1 2.3-8.2 2.3-58.7-.1-67.8-1.5-5.6-5.7-14.1-7.6-15.3-1.9-1.1-.8-2.2 2.9-2.9 5.8-1.1 9.9-3.1 11.7-5.9 2.3-3.5 1.2-5.9-4.4-9.5-4.5-3-16.5-14.4-18.2-17.4-.7-1.1.2-1.7 3.7-2.7 13.9-3.9 31.4-22.6 31.4-33.7 0-6.5-4.6-8.3-13.8-5.1-10.2 3.5-20.7 3.2-29.2-.8-8.3-3.9-15.1-10.8-19.6-19.5-6.1-12.2-6.4-14.6-6.4-52.9 0-53.2-1.9-68.6-11.1-89.6-5.9-13.6-13-23.7-24.3-34.9-22.9-22.7-45.5-30-103.6-33.5-9.1-.5-23.6-1-32.2-1H811v-2.8c-.1-3.8-3.2-10.2-6.6-13.4-1.6-1.5-5-3.6-7.6-4.8-4.7-2-15.4-3.4-19.3-2.4m44 66.8c37.1 4.8 57.4 11.3 66.4 21.2 10.5 11.3 12.9 22.8 15.1 72.3 1 21.1.9 24.6-.3 25.9-1.3 1.3-3.4 1-16.9-2.6-34-9.1-61.5-13.1-93.8-13.9-37.9-.9-76.7 4.3-115.9 15.3-11.3 3.2-12.5 2.8-12.9-4.2-.4-5.7 1.4-41.1 2.9-56.4 3.3-34.7 13.7-45.1 53.5-53.3 11.7-2.5 31.1-5.3 40.9-6.1 10.8-.8 49.6.3 61 1.8m3.1 134c32.3 4.3 68.2 13.5 96.1 24.6 16.2 6.5 38 17 47 22.6l7.3 4.6-2.9 3.7c-11.8 14.9-25.9 20.7-44.3 18.3-4.8-.6-17-3.8-28.8-7.6-53.8-17.1-79.6-21.9-115.5-21.9-38.2 0-64.9 5.3-117 22.9-19.5 6.6-30 8.3-41.2 6.6s-18.7-5.7-26.8-14.4c-8-8.4-8.9-6.8 9.4-16.5 45.9-24.4 96.4-39.4 148.6-44.2 13.7-1.3 54.6-.5 68.1 1.3M808 776.1c18.6 1.8 39.7 6.4 66 14.4 20.2 6.1 36.9 10.2 47.5 11.6 8.1 1 20.8.7 26-.7 1.9-.5 2.3.7 5.4 16 2.1 10.4 3.9 16.7 4.7 17 1.8.7 1.9 7.6.2 7.6-.7 0-6.2-.7-12.3-1.5-27.6-3.6-47.6-4.7-73.5-4.2-26.9.6-34.4 1.4-59.3 6.8-8.4 1.8-18.7 3.2-25.2 3.6-10.1.5-12.7.2-31.3-3.6-31.6-6.3-34.6-6.6-68.2-6.6-30.1 0-51.2 1.5-71.7 4.9l-7.3 1.2v-2.9c0-1.5.5-3.8 1.2-5s2.6-9.1 4.3-17.5c1.8-8.4 3.4-15.4 3.6-15.7.3-.2 3.5.1 7.3.7 13.5 2.2 32.4-1 65.5-11.1 48.8-15 78.1-18.8 117.1-15M579 884.6v44.7l-7.7-.7c-12.6-1.2-19.9-5.4-23.9-14-2.3-4.9-2.4-5.9-2.4-29.6 0-14.2.5-26.1 1.1-28.3 1.2-4.4 6.9-11.1 11.3-13.4 4.9-2.5 7.6-3.1 14.9-3.2l6.7-.1zm426.6-43.1c6.6 1.9 12.1 6.7 15 12.9 2.3 4.9 2.4 6 2.4 29 0 26.8-.5 29.6-6.1 36-4.7 5.4-11.5 8.4-20.8 9.2l-7.1.7V840h5.8c3.2 0 8.1.7 10.8 1.5m-392.8 24.9c5.1 2.6 6.2 4.9 8.3 16.7 5.8 33.5 14.1 50.3 28.6 58.2 19.7 10.7 61.8 11.3 83 1.3 16.8-8 27.6-24.4 35.3-53.7 1.6-6.1 3.4-11.7 4.1-12.5 4.8-5.8 19-5.9 23.7-.1.7.8 2.1 5 3.3 9.3 8.2 32.1 18.2 48.1 35.3 56.4 13.6 6.6 33.8 9.3 53.8 7.1 38.3-4.2 50.3-17.6 58.7-66 2.2-12.2 3.7-15.1 9.3-17l2.9-1-.3 59.7c-.4 57.8-.4 59.9-2.5 67.2-6.6 22.8-21.1 42.9-44.3 61.5-16.2 13-21.1 14.9-26.6 10.2-2.5-2.2-2.7-3-3.5-14.8-.9-14.5-1.7-17.8-7-28-9.4-18-27.9-30.1-53.3-34.6-13-2.3-63.2-2.3-76.2.1-19.9 3.5-30.5 8.6-41.9 20.1-12.9 12.8-17.7 24.2-19.2 45-.5 8.5-1 10.2-2.9 12.2-2.7 2.7-6.3 2.9-10.7.6-10.8-5.5-34.4-26.8-43.7-39.3-7-9.5-12.7-21.3-15.5-32.4l-2.5-9.9v-58.8c0-32.4.2-58.9.5-58.9.4 0 1.8.6 3.3 1.4m216.2 157c12.2 3.2 19.2 9.2 21.7 19 1.7 6.5 1.7 23.7 0 30.3-2.6 10-9.4 16.3-17.5 16.3-4.3 0-5.4-1-10.5-8.9-1.2-1.9-4-4.3-6.2-5.5-3.6-1.8-6.2-2-30.5-2.4-31-.5-35.5.2-40.9 6.3-1.7 2-3.1 4.1-3.1 4.7 0 2.8-4.4 5.8-8.5 5.8-7.1 0-14.1-5.8-17-13.9-2.4-7-2.1-28.4.5-35.5 3.4-8.9 9.9-13.6 22.2-16.1 11.7-2.3 11.7-2.3 48.3-2 29 .2 36.1.5 41.5 1.9"/><path d="M749.5 1040.5c-3.8 3.7-3.7 9.6.1 13.5l2.4 2.5h63.2l2.4-2.8c3.2-3.8 3.2-8.6-.2-12.6l-2.6-3.1h-62.9z"/></svg>