<?xml version="1.0" encoding="UTF-8" standalone="no"?>
<!DOCTYPE svg PUBLIC "-//W3C//DTD SVG 1.1//EN" "http://www.w3.org/Graphics/SVG/1.1/DTD/svg11.dtd">
<svg width="1000" height="140" viewBox="0 0 1000 140" version="1.1" xmlns="http://www.w3.org/2000/svg" xmlns:xlink="http://www.w3.org/1999/xlink" xml:space="preserve" xmlns:serif="http://www.serif.com/" style="fill-rule:evenodd;clip-rule:evenodd;stroke-linejoin:round;stroke-miterlimit:2;">
    <g id="Prancheta1" transform="matrix(1,0,0,1,-250,-430.414819)">
        <rect x="250" y="430.415" width="1000" height="139.17" style="fill:none;"/>
        <clipPath id="_clip1">
            <rect x="250" y="430.415" width="1000" height="139.17"/>
        </clipPath>
        <g clip-path="url(#_clip1)">
            <g transform="matrix(0.987223,0,0,0.987223,103.608048,-70.966791)">
                <g transform="matrix(2.242871,0,0,2.242871,125.33641,501.409256)">
                    <path d="M129.2,9.217L99.011,9.217C96.194,9.217 93.955,11.528 93.955,14.272L93.955,54.79C93.955,57.534 96.194,59.773 99.011,59.773L129.2,59.773C131.944,59.773 134.256,57.534 134.256,54.79L134.256,42.8L117.211,42.8L117.211,52.117L111,52.117L111,16.872L117.211,16.872L117.211,30.306L134.256,30.306L134.256,14.272C134.256,11.528 131.944,9.217 129.2,9.217ZM175.134,9.217L139.889,9.217L139.889,59.773L156.934,59.773L156.934,43.451L163.073,59.773L180.117,59.773L173.401,43.667L175.134,43.667C177.879,43.667 180.19,41.428 180.19,38.612L180.19,14.272C180.19,11.528 177.879,9.217 175.134,9.217ZM163.145,16.872L163.145,36.011L156.934,36.011L156.934,16.872L163.145,16.872ZM220.346,9.217L190.157,9.217C187.339,9.217 185.101,11.528 185.101,14.272L185.101,54.717C185.101,57.534 187.339,59.773 190.157,59.773L220.346,59.773C223.09,59.773 225.401,57.534 225.401,54.717L225.401,14.272C225.401,11.528 223.09,9.217 220.346,9.217ZM208.357,52.117L202.145,52.117L202.145,16.872L208.357,16.872L208.357,52.117ZM266.28,9.217L231.035,9.217L231.035,59.773L248.08,59.773L248.08,44.389L266.28,44.389C269.024,44.389 271.336,42.151 271.336,39.333L271.336,14.272C271.336,11.528 269.024,9.217 266.28,9.217ZM248.08,36.734L248.08,16.872L254.291,16.872L254.291,36.734L248.08,36.734ZM305.353,28.5L309.975,59.773L326.153,59.773L334.964,9.217L317.919,9.217L315.175,36.878L311.13,9.217L299.502,9.217L295.458,36.878L292.713,9.217L275.669,9.217L284.48,59.773L300.658,59.773L305.28,28.5L305.353,28.5ZM339.297,14.272L339.297,59.773L356.342,59.773L356.342,36.734L362.264,36.734L362.264,59.773L379.309,59.773L379.309,9.217L344.353,9.217C341.536,9.217 339.297,11.528 339.297,14.272ZM356.342,16.872L362.264,16.872L362.264,29.078L356.342,29.078L356.342,16.872ZM420.332,9.217L385.087,9.217L385.087,59.773L402.132,59.773L402.132,43.451L408.271,59.773L425.315,59.773L418.599,43.667L420.332,43.667C423.077,43.667 425.388,41.428 425.388,38.612L425.388,14.272C425.388,11.528 423.077,9.217 420.332,9.217ZM408.343,16.872L408.343,36.011L402.132,36.011L402.132,16.872L408.343,16.872ZM430.443,9.217L430.443,59.773L461.86,59.773L461.86,52.117L447.488,52.117L447.488,36.734L457.888,36.734L457.888,29.078L447.488,29.078L447.488,16.872L461.86,16.872L461.86,9.217L430.443,9.217Z" style="fill-rule:nonzero;"/>
                </g>
                <g transform="matrix(1.994019,0,0,1.994019,148.717313,509.142086)">
                    <path fill-rule="evenodd" d="M-0.216,69.254C-0.216,69.815 0.239,70.27 0.8,70.27L69.465,70.27C70.026,70.27 70.481,69.815 70.481,69.254L70.481,0.589C70.481,0.028 70.026,-0.427 69.465,-0.427L0.8,-0.427C0.239,-0.427 -0.216,0.028 -0.216,0.589L-0.216,69.254ZM35.667,10.102C35.353,9.92 34.966,9.92 34.651,10.102C31.709,11.8 16.884,20.36 13.942,22.058C13.628,22.24 13.434,22.575 13.434,22.938C13.434,26.335 13.434,43.454 13.434,46.851C13.434,47.214 13.628,47.55 13.942,47.731C16.884,49.43 31.709,57.989 34.651,59.688C34.966,59.869 35.353,59.869 35.667,59.688C38.609,57.989 53.434,49.43 56.377,47.731C56.691,47.55 56.884,47.214 56.885,46.851C56.885,44.397 56.885,35.079 56.884,35.079L35.159,47.622L24.137,41.258L24.137,28.531L35.159,34.895L56.884,22.352C56.885,22.352 38.937,11.99 35.667,10.102Z"/>
                </g>
            </g>
        </g>
    </g>
</svg>
