<?xml version="1.0" encoding="UTF-8" standalone="no"?>
<!DOCTYPE svg PUBLIC "-//W3C//DTD SVG 1.1//EN" "http://www.w3.org/Graphics/SVG/1.1/DTD/svg11.dtd">
<svg width="100%" height="100%" viewBox="0 0 400 121" version="1.1" xmlns="http://www.w3.org/2000/svg" xmlns:xlink="http://www.w3.org/1999/xlink" xml:space="preserve" xmlns:serif="http://www.serif.com/" style="fill-rule:evenodd;clip-rule:evenodd;stroke-linecap:square;stroke-miterlimit:1.5;">
    <g transform="matrix(1,0,0,1,-200.446871,-39.771918)">
        <g transform="matrix(2.115038,0,0,2.115038,39.056733,-23.916217)">
            <g>
                <g>
                    <g transform="matrix(0.884403,0,0,0.884403,27.269287,24.591572)">
                        <path d="M59.577,22.693L55.446,22.693L55.446,6.242L71.897,6.242L71.897,8.921L59.577,8.921L59.577,22.693Z" style="fill:rgb(72,72,72);"/>
                    </g>
                    <g transform="matrix(-0.884403,0,0,0.884403,184.863382,24.591572)">
                        <path d="M59.577,22.693L55.446,22.693L55.446,6.242L71.897,6.242L71.897,8.921L59.577,8.921L59.577,22.693Z" style="fill:rgb(72,72,72);"/>
                    </g>
                    <g transform="matrix(-0.884403,0,0,-0.884403,184.863382,92.584771)">
                        <path d="M59.577,22.693L55.446,22.693L55.446,6.242L71.897,6.242L71.897,8.921L59.577,8.921L59.577,22.693Z" style="fill:rgb(72,72,72);"/>
                    </g>
                    <g transform="matrix(0.884403,0,0,-0.884403,27.269287,92.584771)">
                        <path d="M59.577,22.693L55.446,22.693L55.446,6.242L71.897,6.242L71.897,8.921L59.577,8.921L59.577,22.693Z" style="fill:rgb(72,72,72);"/>
                    </g>
                    <g transform="matrix(1.532672,0,0,1.477855,-36.956162,-8.581797)">
                        <path d="M93.316,30.884L105.321,38.072L93.316,45.26L81.311,38.072L93.316,30.884Z" style="fill:rgb(34,211,238);"/>
                    </g>
                    <g transform="matrix(1.069791,0,0,1.069791,7.189276,9.887319)">
                        <path d="M92.427,65.12L75.227,55.238L75.227,35.33L92.427,45.26L92.427,65.12Z" style="fill:rgb(251,191,36);fill-opacity:0.6;stroke:white;stroke-width:0.44px;"/>
                    </g>
                    <g transform="matrix(-1.069791,0,0,1.069791,204.943393,9.887319)">
                        <path d="M92.427,65.12L75.227,55.238L75.227,35.33L92.427,45.26L92.427,65.12Z" style="fill:rgb(248,113,113);fill-opacity:0.8;stroke:white;stroke-width:0.44px;"/>
                    </g>
                    <g transform="matrix(0.496764,0,0,0.496764,-83.056676,-5.688341)">
                        <path d="M498.512,175.874C493.282,175.874 489.195,175.229 486.253,173.94C483.311,172.649 481.265,170.551 480.115,167.644C478.964,164.737 478.389,160.921 478.389,156.196L478.389,149.866L487.503,149.866L487.503,158.295C487.503,162.885 488.292,166.057 489.869,167.811C491.446,169.564 494.299,170.44 498.428,170.44C502.043,170.44 504.698,169.546 506.395,167.759C508.091,165.971 508.939,163.013 508.939,158.885L508.939,154.758C508.939,152.529 508.583,150.593 507.871,148.952C507.16,147.309 505.86,145.806 503.971,144.444C502.083,143.08 499.448,141.736 496.066,140.414C492.878,139.118 490.055,137.733 487.597,136.258C485.139,134.781 483.202,132.921 481.788,130.678C480.374,128.434 479.667,125.557 479.667,122.046L479.667,117.636C479.667,112.517 481.148,108.518 484.111,105.639C487.073,102.76 492.126,101.321 499.269,101.321C503.957,101.321 507.698,101.952 510.493,103.213C513.29,104.475 515.336,106.514 516.631,109.331C517.928,112.147 518.577,115.82 518.577,120.349L518.577,126.49L509.716,126.49L509.716,119.44C509.716,114.572 508.875,111.241 507.192,109.447C505.511,107.652 502.884,106.755 499.31,106.755C495.209,106.755 492.45,107.728 491.033,109.676C489.615,111.622 488.907,114.035 488.907,116.914L488.907,120.891C488.907,123.663 489.509,125.923 490.715,127.669C491.92,129.416 493.652,130.87 495.909,132.031C498.166,133.192 500.866,134.427 504.01,135.736C506.837,136.863 509.341,138.095 511.522,139.433C513.703,140.771 515.424,142.558 516.684,144.794C517.946,147.029 518.577,150.118 518.577,154.059L518.577,157.346C518.577,161.292 517.962,164.648 516.734,167.416C515.507,170.183 513.436,172.285 510.521,173.721C507.607,175.156 503.604,175.874 498.512,175.874Z" style="fill:rgb(72,72,72);fill-rule:nonzero;"/>
                    </g>
                    <g transform="matrix(0.496764,0,0,0.496764,-83.056676,-5.688341)">
                        <path d="M540.013,175.122C537.88,175.122 535.938,174.864 534.185,174.349C532.434,173.834 530.93,173.016 529.673,171.894C528.417,170.772 527.453,169.302 526.781,167.482C526.111,165.662 525.775,163.399 525.775,160.69L525.775,108.261L519.336,108.261L519.336,103.456L526.365,102.491L527.979,88.908L534.743,88.908L534.743,102.491L550.471,102.491L550.471,108.261L534.743,108.261L534.743,159.138C534.743,161.851 535.251,164.123 536.266,165.955C537.282,167.785 539.413,168.701 542.657,168.701C544.037,168.701 545.51,168.645 547.076,168.534C548.644,168.421 549.776,168.33 550.471,168.262L550.471,174.116C549.707,174.185 548.342,174.37 546.374,174.672C544.407,174.972 542.286,175.122 540.013,175.122Z" style="fill:rgb(72,72,72);fill-rule:nonzero;"/>
                    </g>
                    <g transform="matrix(0.496764,0,0,0.496764,-83.056676,-5.688341)">
                        <path d="M568.469,176.041C563.343,176.041 559.575,175.153 557.164,173.378C554.755,171.601 553.198,169.246 552.494,166.314C551.79,163.382 551.438,160.236 551.438,156.875L551.438,102.491L560.509,102.491L560.509,155.684C560.509,157.882 560.641,160.02 560.904,162.099C561.169,164.176 562.07,165.889 563.606,167.238C565.143,168.586 567.717,169.261 571.331,169.261C573.915,169.261 575.944,168.819 577.416,167.937C578.89,167.055 579.998,165.999 580.742,164.771C581.487,163.541 581.992,162.426 582.256,161.424L582.256,102.491L591.329,102.491L591.329,174.912L583.538,174.912L582.825,167.068C582.016,169.397 580.426,171.475 578.056,173.302C575.688,175.128 572.492,176.041 568.469,176.041Z" style="fill:rgb(72,72,72);fill-rule:nonzero;"/>
                    </g>
                    <g transform="matrix(0.496764,0,0,0.496764,-83.056676,-5.688341)">
                        <path d="M615.588,176.041C611.953,176.041 608.975,175.596 606.654,174.706C604.335,173.814 602.509,172.498 601.177,170.758C599.845,169.018 598.927,166.857 598.424,164.277C597.922,161.697 597.67,158.739 597.67,155.403L597.67,119.373C597.67,116.668 597.935,114.215 598.466,112.015C598.997,109.812 599.901,107.914 601.177,106.32C602.454,104.726 604.171,103.481 606.329,102.585C608.487,101.687 611.208,101.238 614.49,101.238C618.46,101.238 621.531,101.821 623.703,102.985C625.876,104.148 627.471,105.551 628.488,107.196L628.488,82.74L637.456,82.74L637.456,174.912L631.261,174.912L630.275,168.035C629.746,169.274 628.924,170.51 627.809,171.743C626.695,172.976 625.173,174.001 623.244,174.818C621.316,175.633 618.764,176.041 615.588,176.041ZM617.25,170.5C620.071,170.5 622.252,169.993 623.794,168.979C625.338,167.965 626.423,166.626 627.047,164.965C627.674,163.304 628.053,161.476 628.186,159.481C628.318,157.486 628.385,155.529 628.385,153.608L628.385,113.887C628.176,112.985 627.707,111.999 626.977,110.929C626.247,109.859 625.138,108.935 623.65,108.158C622.163,107.379 620.134,106.99 617.563,106.99C614.81,106.99 612.697,107.376 611.224,108.147C609.752,108.918 608.685,109.978 608.023,111.327C607.363,112.675 606.985,114.173 606.887,115.821C606.79,117.468 606.741,119.182 606.741,120.962L606.741,156.631C606.741,158.953 606.89,161.185 607.189,163.326C607.489,165.467 608.372,167.199 609.838,168.52C611.305,169.84 613.775,170.5 617.25,170.5Z" style="fill:rgb(72,72,72);fill-rule:nonzero;"/>
                    </g>
                    <g transform="matrix(0.496764,0,0,0.496764,-83.056676,-5.688341)">
                        <path d="M645.528,174.912L645.528,102.491L654.495,102.491L654.495,174.912L645.528,174.912ZM650.031,93.509C648.614,93.509 647.393,93.01 646.369,92.012C645.345,91.012 644.833,89.821 644.833,88.437C644.833,87.026 645.345,85.838 646.369,84.873C647.393,83.908 648.614,83.426 650.031,83.426C651.471,83.426 652.712,83.908 653.753,84.873C654.793,85.838 655.314,87.019 655.314,88.416C655.314,89.814 654.793,91.012 653.753,92.012C652.712,93.01 651.471,93.509 650.031,93.509Z" style="fill:rgb(72,72,72);fill-rule:nonzero;"/>
                    </g>
                    <g transform="matrix(0.496764,0,0,0.496764,-83.056676,-5.688341)">
                        <path d="M680.869,175.977C676.326,175.977 672.569,175.364 669.597,174.139C666.627,172.914 664.43,170.743 663.006,167.626C661.584,164.51 660.873,160.21 660.873,154.729L660.873,120.866C660.873,113.868 662.425,108.854 665.528,105.824C668.632,102.794 673.746,101.28 680.869,101.28C687.992,101.28 693.071,102.76 696.105,105.721C699.141,108.681 700.659,113.729 700.659,120.866L700.659,154.685C700.659,160.127 699.982,164.407 698.627,167.523C697.273,170.638 695.146,172.826 692.244,174.086C689.344,175.347 685.552,175.977 680.869,175.977ZM680.869,170.207C684.775,170.207 687.538,169.23 689.158,167.276C690.778,165.323 691.588,161.781 691.588,156.651L691.588,120.544C691.588,115.76 690.812,112.322 689.261,110.229C687.711,108.137 684.914,107.091 680.869,107.091C676.992,107.091 674.202,108.085 672.498,110.074C670.795,112.063 669.944,115.553 669.944,120.544L669.944,156.651C669.944,161.712 670.795,165.237 672.498,167.226C674.202,169.213 676.992,170.207 680.869,170.207Z" style="fill:rgb(72,72,72);fill-rule:nonzero;"/>
                    </g>
                </g>
            </g>
        </g>
    </g>
</svg>
